<svg width="182" height="159" viewBox="0 0 182 159" fill="none" xmlns="http://www.w3.org/2000/svg">
<path d="M179.5 2.5H153.385L147.582 11.217L144.494 24.7767M122.434 121.632V134.223H107.926M122.434 121.632H110.828M122.434 121.632L144.494 24.7767M110.828 121.632V77.0786H94.3852M110.828 121.632H60.0492M9.27049 121.632H2.5V134.223H32.4836M9.27049 121.632V77.0786H28.6148M9.27049 121.632H60.0492M60.0492 121.632V77.0786M60.0492 77.0786H40.2213M60.0492 77.0786H78.9098M94.3852 77.0786V34.4623H76.0082M94.3852 77.0786H91.4836M40.2213 77.0786V34.4623H58.5984M40.2213 77.0786V94.5126L34.418 87.7327L28.6148 94.5126V77.0786M40.2213 77.0786H28.6148M144.494 24.7767H170.795M76.0082 34.4623V49.9591H58.5984V34.4623M76.0082 34.4623H58.5984M91.4836 77.0786V94.5126L84.7131 87.7327L78.9098 94.5126V77.0786M91.4836 77.0786H78.9098M107.926 135.192C113.802 135.192 118.566 139.962 118.566 145.846C118.566 151.73 113.802 156.5 107.926 156.5C102.05 156.5 97.2869 151.73 97.2869 145.846C97.2869 139.962 102.05 135.192 107.926 135.192ZM107.926 135.192V134.223M32.4836 135.192C38.3596 135.192 43.123 139.962 43.123 145.846C43.123 151.73 38.3596 156.5 32.4836 156.5C26.6077 156.5 21.8443 151.73 21.8443 145.846C21.8443 139.962 26.6077 135.192 32.4836 135.192ZM32.4836 135.192V134.223M107.926 134.223H32.4836" stroke="#FFA20C" stroke-width="5" stroke-linecap="round" stroke-linejoin="round"/>
</svg>
