<svg width="201" height="146" viewBox="0 0 201 146" fill="none" xmlns="http://www.w3.org/2000/svg">
<path d="M70.275 55.8671H127.8M30.3 101.881C30.3 126.357 36.15 143 48.825 143H104.4M136.575 90.1329H116.1V143H175.575V90.1329H153.15M136.575 90.1329V110.692L145.35 101.881L153.15 110.692V90.1329M136.575 90.1329H153.15M42 44.1189C42 50.6073 36.7617 55.8671 30.3 55.8671C23.8383 55.8671 18.6 50.6073 18.6 44.1189C18.6 37.6305 23.8383 32.3706 30.3 32.3706C36.7617 32.3706 42 37.6305 42 44.1189ZM180.45 35.3077C180.45 42.3368 174.775 48.035 167.775 48.035C160.775 48.035 155.1 42.3368 155.1 35.3077C155.1 28.2786 160.775 22.5804 167.775 22.5804C174.775 22.5804 180.45 28.2786 180.45 35.3077ZM198 36.2867C198 17.903 184.468 3 167.775 3C151.082 3 137.55 17.903 137.55 36.2867C137.55 41.1729 138.506 45.8131 140.223 49.993L167.775 88.1748L195.327 49.993C197.044 45.8131 198 41.1729 198 36.2867ZM57.6 46.0769C57.6 30.9374 45.3774 18.6643 30.3 18.6643C15.2226 18.6643 3 30.9374 3 46.0769C3 49.5262 3.63445 52.8267 4.79255 55.8671L30.3 93.0699L55.8074 55.8671C56.9656 52.8267 57.6 49.5262 57.6 46.0769Z" stroke="#FFA20C" stroke-width="6" stroke-linecap="round" stroke-linejoin="round"/>
</svg>
