<svg width="120" height="132" viewBox="0 0 120 132" fill="none" xmlns="http://www.w3.org/2000/svg">
<path d="M81.8103 119.09V129.5H2.5V22.9411H12.8859M81.8103 119.09H92.0074V108.87M81.8103 119.09V91.1314M92.0074 108.87V93.5388H92.1962M92.0074 108.87H102.204V91.313M12.8859 22.9411H82.188V48.447L82.5657 48.2736M12.8859 22.9411V12.5313H22.8941M22.8941 12.5313H92.3851V46.2221L92.1962 46.2213M22.8941 12.5313V2.5H102.393V48.5368L102.204 48.447C99.1659 47.0192 95.774 46.2213 92.1962 46.2213M17.4179 109.627H63.3046M18.3621 93.5388H63.3046M18.3621 78.0186H58.3949M18.3621 62.12H58.3949M18.3621 46.2213H62.5493M92.1962 93.5388C88.4695 93.5388 84.9444 92.6731 81.8103 91.1314M92.1962 93.5388C95.774 93.5388 99.1659 92.7409 102.204 91.313M92.1962 46.2213C88.766 46.2213 85.5066 46.9547 82.5657 48.2736M82.5657 48.2736C74.3301 51.967 68.592 60.2519 68.592 69.88C68.592 79.0922 73.845 87.0747 81.5125 90.9823M81.8103 91.1314C81.7107 91.0824 81.6114 91.0327 81.5125 90.9823M81.8103 91.1314L81.5125 90.9823M102.204 91.313C102.317 91.2599 102.43 91.2059 102.542 91.1511M102.204 91.313L102.542 91.1511M102.542 91.1511C110.393 87.3078 115.8 79.2269 115.8 69.88V68.5551M81.4327 61.9307L92.3851 77.0723L117.5 53.4136" stroke="#FFA20C" stroke-width="5" stroke-linecap="round" stroke-linejoin="round"/>
</svg>
