<svg width="91" height="91" viewBox="0 0 91 91" fill="none" xmlns="http://www.w3.org/2000/svg">
<circle cx="45.4912" cy="45.4913" r="45.4912" fill="#FFA20C"/>
<circle cx="45.4914" cy="45.4913" r="40.9421" fill="#F4F4F4"/>
<path d="M31.8439 38.6676V22.7457H59.1386V38.6676M31.8439 59.1387H27.2947C26.0882 59.1387 24.9311 58.6594 24.078 57.8063C23.2249 56.9531 22.7456 55.796 22.7456 54.5895V43.2167C22.7456 42.0102 23.2249 40.8531 24.078 40C24.9311 39.1469 26.0882 38.6676 27.2947 38.6676H63.6877C64.8942 38.6676 66.0513 39.1469 66.9044 40C67.7576 40.8531 68.2368 42.0102 68.2368 43.2167V54.5895C68.2368 55.796 67.7576 56.9531 66.9044 57.8063C66.0513 58.6594 64.8942 59.1387 63.6877 59.1387H59.1386M31.8439 50.0404H59.1386V68.2369H31.8439V50.0404Z" stroke="#FFA20C" stroke-width="5" stroke-linecap="round" stroke-linejoin="round"/>
</svg>
