<svg width="15" height="20" viewBox="0 0 15 20" fill="none" xmlns="http://www.w3.org/2000/svg">
<path d="M7.24609 0C6.24349 0 5.30599 0.188802 4.43359 0.566406C3.54818 0.94401 2.77995 1.46159 2.12891 2.11914C1.47786 2.77669 0.957031 3.54818 0.566406 4.43359C0.188802 5.30599 0 6.24349 0 7.24609C0 8.48307 0.338542 9.81771 1.01562 11.25C1.69271 12.6823 2.44466 14.0169 3.27148 15.2539C4.09831 16.4909 4.86979 17.5391 5.58594 18.3984C6.30208 19.2448 6.69271 19.707 6.75781 19.7852C6.88802 19.9284 7.05078 20 7.24609 20C7.44141 20 7.60417 19.9284 7.73438 19.7852C7.79948 19.707 8.1901 19.2448 8.90625 18.3984C9.6224 17.5391 10.3939 16.4909 11.2207 15.2539C12.0475 14.0169 12.7995 12.6823 13.4766 11.25C14.1536 9.81771 14.4922 8.48307 14.4922 7.24609C14.4922 6.24349 14.3034 5.30599 13.9258 4.43359C13.5352 3.54818 13.0143 2.77669 12.3633 2.11914C11.7122 1.46159 10.944 0.94401 10.0586 0.566406C9.1862 0.188802 8.2487 0 7.24609 0ZM7.24609 10.8789C6.24349 10.8789 5.38411 10.5241 4.66797 9.81445C3.95182 9.10482 3.59375 8.2487 3.59375 7.24609C3.59375 6.24349 3.95182 5.38411 4.66797 4.66797C5.38411 3.95182 6.24349 3.59375 7.24609 3.59375C8.2487 3.59375 9.10807 3.95182 9.82422 4.66797C10.5404 5.38411 10.8984 6.24349 10.8984 7.24609C10.8984 8.2487 10.5404 9.10482 9.82422 9.81445C9.10807 10.5241 8.2487 10.8789 7.24609 10.8789Z" fill="#FFA20C"/>
</svg>
