<svg width="159" height="132" viewBox="0 0 159 132" fill="none" xmlns="http://www.w3.org/2000/svg">
<path d="M77.301 18.9042C72.8131 14.4062 64.5918 12.4365 61.4334 14.5944C55.1253 18.9042 49.5814 16.2583 47.7334 14.4062L35.5896 2.5L28.9 9.06897L21.2516 16.6814M77.301 18.9042C74.3091 20.3153 67.48 24.6816 62.5172 29.2229C56.4453 34.7792 54.5973 33.9854 54.8613 45.3625V59.65C54.8613 62.825 59.3492 66.2646 66.7412 59.65C67.4451 58.8562 69.4339 54.7817 71.7571 44.8333C74.5697 44.5017 79.6219 45.3339 86.2769 44.7511M77.301 18.9042C83.6369 17.3167 90.5009 17.3167 97.8928 19.6979C108.981 22.3437 112.149 11.2312 122.972 3.02917L132.3 11.2586L141.212 20.1284M86.2769 44.7511C90.241 44.4039 94.7738 43.5547 99.7407 41.6583M86.2769 44.7511L100.269 58.5917M60.5249 110.69L65.6876 105.693M60.5249 110.69C57.5906 113.53 52.9147 113.448 50.081 110.507C47.2473 107.566 47.2677 102.79 50.2021 99.9498L55.389 94.9297C58.3234 92.0897 63.0363 92.2852 65.8699 95.226M60.5249 110.69L61.6208 110.172M65.8699 95.226C68.7036 98.1669 68.622 102.853 65.6876 105.693M65.8699 95.226L76.4109 105.439M65.6876 105.693L65.9762 105.685M61.6208 110.172L66.2647 105.677M61.6208 110.172C58.6838 113.014 58.6021 117.705 61.4384 120.648C64.1494 123.462 68.5451 123.661 71.4928 121.19M76.7728 105.79C79.609 108.733 79.4725 113.494 76.5355 116.336L71.8916 120.831C71.762 120.956 71.629 121.076 71.4928 121.19M76.7728 105.79L76.4109 105.439M76.7728 105.79C76.4182 105.422 76.0341 105.1 75.6274 104.823M76.7728 105.79C76.6553 105.668 76.5346 105.551 76.4109 105.439M66.2647 105.677L65.9762 105.685M66.2647 105.677C68.8345 103.19 72.7809 102.888 75.6274 104.823M29.5838 82.4042C29.6477 84.2226 30.3566 86.0246 31.717 87.4365C34.1536 89.9653 37.911 90.4443 40.8469 88.8362M29.5838 82.4042C29.5105 80.3163 30.2875 78.2067 31.905 76.6412L34.1428 74.4754C37.1691 71.5464 41.9916 71.6308 44.9141 74.6639C47.3507 77.1926 47.6973 80.9727 45.9913 83.8573M29.5838 82.4042L26.6134 78.4354C19.2215 67.3229 17.6375 62.825 17.6375 59.1208C17.9015 48.2729 11.8299 45.8917 2.5 35.5707L13.5 24.3966L21.2516 16.6814M40.8469 88.8362L37.5874 91.9909C34.712 94.7738 34.6321 99.3659 37.4088 102.248C40.1855 105.129 44.7675 105.21 47.6429 102.427L59.8891 90.5744C62.7644 87.7915 62.8444 83.1994 60.0677 80.3176C57.291 77.4358 52.709 77.3557 49.8336 80.1386L45.9913 83.8573M40.8469 88.8362C41.4324 88.5156 41.9852 88.1119 42.4884 87.6249L44.7261 85.4591C45.2236 84.9776 45.6416 84.4446 45.9799 83.8766L45.9913 83.8573M40.8469 88.8362L45.9913 83.8573M112.782 94.4489L114.561 96.1714C117.852 99.3562 123.095 99.2645 126.273 95.9665C129.314 92.8111 129.361 87.8637 126.477 84.6525M112.782 94.4489L91.8206 74.2021M112.782 94.4489C116.102 97.6622 116.194 102.965 112.988 106.292C109.782 109.62 104.491 109.712 101.171 106.499L80.2047 85.8437M98.5466 103.959C101.814 107.121 101.905 112.339 98.7496 115.613C95.5946 118.887 90.3885 118.978 87.1215 115.816L76.4109 105.439M110.3 68.1897L126.069 84.2286C126.211 84.3661 126.347 84.5075 126.477 84.6525M126.477 84.6525L128.78 82.4042C136.172 73.6729 140.495 64.4125 140.66 60.4437C140.924 54.0937 142.244 50.125 144.356 47.7437L156.5 35.8375L149.9 28.7759L141.212 20.1284M65.9762 105.685L71.2288 100.396M88.1246 116.646V122.092C88.1246 126.183 84.8152 129.5 80.7327 129.5H79.1487C75.0663 129.5 71.4928 126.183 71.4928 122.092V121.19M76.4109 105.439C76.1612 105.213 75.8993 105.008 75.6274 104.823M21.1277 16.8047L21.2516 16.6814M141.1 20.0172L141.212 20.1284" stroke="#FFA20C" stroke-width="5" stroke-linecap="round" stroke-linejoin="round"/>
</svg>
