<svg width="91" height="91" viewBox="0 0 91 91" fill="none" xmlns="http://www.w3.org/2000/svg">
<circle cx="45.4912" cy="45.4913" r="45.4912" fill="#FFA20C"/>
<circle cx="45.4909" cy="45.4913" r="40.9421" fill="#F4F4F4"/>
<path d="M64.2943 67.3271V62.4747C64.2943 59.9008 63.2718 57.4323 61.4518 55.6123C59.6318 53.7923 57.1634 52.7699 54.5895 52.7699H35.1799C32.606 52.7699 30.1376 53.7923 28.3176 55.6123C26.4976 57.4323 25.4751 59.9008 25.4751 62.4747V67.3271M54.5895 33.3603C54.5895 38.7201 50.2445 43.0651 44.8847 43.0651C39.5249 43.0651 35.1799 38.7201 35.1799 33.3603C35.1799 28.0005 39.5249 23.6555 44.8847 23.6555C50.2445 23.6555 54.5895 28.0005 54.5895 33.3603Z" stroke="#FFA20C" stroke-width="5" stroke-linecap="round" stroke-linejoin="round"/>
</svg>
