<svg width="42" height="42" viewBox="0 0 42 42" fill="none" xmlns="http://www.w3.org/2000/svg">
<path d="M25.5372 9.26314C27.3141 9.60916 28.9471 10.4765 30.2273 11.7542C31.5074 13.0319 32.3765 14.6618 32.7231 16.4353M25.5372 2.00018C29.2289 2.40952 32.6714 4.05955 35.2996 6.67936C37.9277 9.29916 39.5852 12.733 40 16.4172M38.1808 30.9067V36.354C38.1828 36.8597 38.0791 37.3602 37.8761 37.8235C37.6731 38.2869 37.3754 38.7028 37.0021 39.0446C36.6287 39.3865 36.188 39.6468 35.708 39.8088C35.2281 39.9708 34.7195 40.031 34.2149 39.9854C28.6169 39.3783 23.2396 37.4691 18.5151 34.4111C14.1195 31.6234 10.3929 27.9038 7.59976 23.5167C4.52524 18.7798 2.61191 13.3867 2.01477 7.77423C1.9693 7.27212 2.02909 6.76606 2.19032 6.28828C2.35155 5.81049 2.61069 5.37145 2.95124 4.9991C3.29179 4.62675 3.70628 4.32925 4.16834 4.12555C4.63039 3.92184 5.12988 3.8164 5.63501 3.81592H11.0927C11.9755 3.80725 12.8314 4.11929 13.5009 4.69389C14.1703 5.26849 14.6075 6.06643 14.7311 6.93899C14.9614 8.68222 15.3886 10.3938 16.0045 12.0412C16.2493 12.6911 16.3023 13.3974 16.1572 14.0764C16.0121 14.7555 15.675 15.3787 15.1859 15.8724L12.8755 18.1784C15.4652 22.7242 19.2363 26.488 23.7908 29.0728L26.1012 26.7669C26.5958 26.2787 27.2203 25.9422 27.9006 25.7974C28.5809 25.6526 29.2886 25.7055 29.9397 25.9498C31.5903 26.5645 33.3052 26.9909 35.0517 27.2208C35.9354 27.3452 36.7425 27.7895 37.3194 28.4691C37.8964 29.1487 38.2029 30.0163 38.1808 30.9067Z" stroke="#FFA20C" stroke-width="4" stroke-linecap="round" stroke-linejoin="round"/>
</svg>
