<svg width="52" height="52" viewBox="0 0 52 52" fill="none" xmlns="http://www.w3.org/2000/svg">
<path d="M40.7692 44.9188V38.9231C40.7692 36.9646 39.9912 35.0863 38.6063 33.7014C37.2214 32.3165 35.3431 31.5385 33.3846 31.5385H18.6154C16.6569 31.5385 14.7786 32.3165 13.3937 33.7014C12.0088 35.0863 11.2308 36.9646 11.2308 38.9231V44.9188C25.0769 54.6154 36.4615 47.8901 40.7692 44.9188Z" stroke="#FFA20C" stroke-width="4" stroke-linecap="round"/>
<path d="M33.3846 16.7692C33.3846 20.8476 30.0784 24.1538 26 24.1538C21.9216 24.1538 18.6154 20.8476 18.6154 16.7692C18.6154 12.6908 21.9216 9.38462 26 9.38462C30.0784 9.38462 33.3846 12.6908 33.3846 16.7692Z" stroke="#FFA20C" stroke-width="4" stroke-linecap="round"/>
<path d="M50 26C50 39.2548 39.2548 50 26 50C12.7452 50 2 39.2548 2 26C2 12.7452 12.7452 2 26 2C39.2548 2 50 12.7452 50 26Z" stroke="#FFA20C" stroke-width="4" stroke-linecap="round"/>
</svg>
