<svg width="141" height="135" viewBox="0 0 141 135" fill="none" xmlns="http://www.w3.org/2000/svg">
<path d="M47.3678 91.1608L94.3305 43.8401M96.9493 84.3002C96.9493 89.5465 92.7285 93.7995 87.5218 93.7995C82.3152 93.7995 78.0943 89.5465 78.0943 84.3002C78.0943 79.0539 82.3152 74.8009 87.5218 74.8009C92.7285 74.8009 96.9493 79.0539 96.9493 84.3002ZM63.4294 50.5248C63.4294 55.7712 59.2086 60.0242 54.0019 60.0242C48.7953 60.0242 44.5745 55.7712 44.5745 50.5248C44.5745 45.2785 48.7953 41.0255 54.0019 41.0255C59.2086 41.0255 63.4294 45.2785 63.4294 50.5248ZM38.4641 111.743L49.8119 132.5L70.4127 121.242L91.1881 132.5L102.536 111.743L126.105 106.817L121.565 84.3002L138.5 67.2366L122.438 50.5248L125.755 27.6561L102.711 23.0824L92.061 2.50049L70.7619 12.7035L49.8119 2.50049L38.9878 23.0824L15.7683 26.4247L19.0854 49.4694L2.5 67.0607L19.0854 84.3002L15.07 107.873L38.4641 111.743Z" stroke="#FFA20C" stroke-width="5" stroke-linecap="round" stroke-linejoin="round"/>
</svg>
