<svg width="91" height="91" viewBox="0 0 91 91" fill="none" xmlns="http://www.w3.org/2000/svg">
<circle cx="45.4912" cy="45.4912" r="45.4912" fill="#FFA20C"/>
<circle cx="45.4912" cy="45.4912" r="40.9421" fill="#F4F4F4"/>
<path d="M62.1524 28.8301L27.9203 63.0622M37.7009 32.4978C37.7009 35.8739 34.964 38.6107 31.588 38.6107C28.2119 38.6107 25.4751 35.8739 25.4751 32.4978C25.4751 29.1218 28.2119 26.3849 31.588 26.3849C34.964 26.3849 37.7009 29.1218 37.7009 32.4978ZM64.5976 59.3945C64.5976 62.7706 61.8607 65.5074 58.4847 65.5074C55.1086 65.5074 52.3718 62.7706 52.3718 59.3945C52.3718 56.0184 55.1086 53.2816 58.4847 53.2816C61.8607 53.2816 64.5976 56.0184 64.5976 59.3945Z" stroke="#FFA20C" stroke-width="5" stroke-linecap="round" stroke-linejoin="round"/>
</svg>
