<svg width="144" height="145" viewBox="0 0 144 145" fill="none" xmlns="http://www.w3.org/2000/svg">
<path d="M84.9541 125.361V108.842M84.9541 98.1047V67.1313H97.0858C106.171 67.1313 113.535 74.7768 113.535 83.444C113.535 90.2712 109.841 95.9461 103.46 98.1047H91.7396M84.9541 98.1047V108.842M84.9541 98.1047H74.4675H91.7396M84.9541 98.1047H91.7396M84.9541 108.842H74.4675H111.891M101.815 49.6606C99.6001 49.3352 97.3345 49.1667 95.0296 49.1667C69.3647 49.1667 48.5592 70.06 48.5592 95.8333C48.5592 120.426 67.5019 140.575 91.534 142.37M101.815 49.6606C124.264 52.9588 141.5 72.3747 141.5 95.8333C141.5 121.607 120.694 142.5 95.0296 142.5C93.8537 142.5 92.688 142.456 91.534 142.37M101.815 49.6606V2.5H2.5V141.674L91.534 142.37M20.8003 29.7566H84.9541M19.9778 47.7212H46.2973" stroke="#FFA20C" stroke-width="5" stroke-linecap="round" stroke-linejoin="round"/>
</svg>
