<svg width="238" height="134" viewBox="0 0 238 134" fill="none" xmlns="http://www.w3.org/2000/svg">
<path d="M104.893 112.559C104.893 122.744 113.17 131 123.38 131C133.59 131 141.866 122.744 141.866 112.559M104.893 112.559C104.893 102.375 113.17 94.1186 123.38 94.1186C133.59 94.1186 141.866 102.375 141.866 112.559M104.893 112.559H70.4219M141.866 112.559H167.965V86.5254M33.4485 112.559C33.4485 122.744 41.7253 131 51.9352 131C62.1452 131 70.4219 122.744 70.4219 112.559M33.4485 112.559C33.4485 102.375 41.7253 94.1186 51.9352 94.1186C62.1452 94.1186 70.4219 102.375 70.4219 112.559M33.4485 112.559H2.99986V68.0847M2.99986 68.0847H58.46V24.6949M2.99986 68.0847L33.4485 24.6949H58.46M58.46 24.6949H81.2965M81.2965 24.6949L81.296 86.5254H167.965M81.2965 24.6949V9.50847L86.7337 3H181.015L184.319 17.1017M167.965 86.5254H200.589L198.301 76.7627M234.3 62.661H167.965M224.513 31.2034H156.003M200.589 46.3898H161.441M159.266 62.661H145.129" stroke="#FFA20C" stroke-width="6" stroke-linecap="round" stroke-linejoin="round"/>
</svg>
