<svg width="305" height="138" viewBox="0 0 305 138" fill="none" xmlns="http://www.w3.org/2000/svg">
<path d="M0 108.035V137.07L10.25 136.785L20.5 136.5V116V95.5L26.75 95.202L33 94.905V115.336V135.767L35.487 136.242C36.855 136.504 41.58 136.805 45.987 136.911L54 137.104V108.052V79H27H0V108.035Z" fill="#221783"/>
<path d="M60.235 107.75L60.5 136.5H70.885H81.269L86.798 123.75C89.84 116.737 92.704 111 93.164 111C93.624 111 94 116.573 94 123.383C94 130.957 93.8321 134.317 95.4196 135.806C96.831 137.13 99.6299 136.975 105.168 136.986C109.174 136.994 111.558 137.291 112.972 136.259C115.325 134.543 114.997 129.151 114.991 112.643C114.987 99.914 114.699 87.138 114.352 84.25L113.721 79H103.572H93.422L88.067 92.25C85.122 99.537 82.327 105.927 81.856 106.45C81.377 106.982 81 101.147 81 93.2V79H70.485H59.969L60.235 107.75Z" fill="#221783"/>
<path d="M150.75 78.768C137.688 78.916 126.99 79.366 126.978 79.768C126.965 80.171 126.833 87.925 126.683 97C126.533 106.075 126.039 114.304 125.584 115.287C125.13 116.27 123.413 117.769 121.769 118.62L118.78 120.165L119.36 127.333C119.678 131.275 119.953 135.063 119.97 135.75C120.012 137.486 127.423 137.361 133.627 135.518C143.386 132.62 146.097 127.008 146.917 108L147.5 94.5H152H156.5L157.112 115C157.449 126.275 157.786 135.613 157.862 135.75C157.938 135.887 162.5 136 168 136H178V107.617C178 81.391 177.867 79.205 176.25 78.867C175.287 78.665 163.813 78.621 150.75 78.768Z" fill="#221783"/>
<path fill-rule="evenodd" clip-rule="evenodd" d="M204.951 78.303C196.311 80.745 189.141 86.7 184.846 95C181.397 101.662 181.571 113.526 185.219 120.563C190.785 131.297 200.732 137.317 213 137.372C225.378 137.429 234.927 131.637 240.817 120.5C243.039 116.298 243.461 114.222 243.461 107.5C243.461 100.778 243.039 98.702 240.817 94.5C233.857 81.339 218.593 74.446 204.951 78.303ZM201.742 111.775C198.625 105.703 201.602 98.403 208.415 95.409C220.031 90.307 230.142 106.012 221.077 115.077C215.082 121.072 205.692 119.469 201.742 111.775Z" fill="#221783"/>
<path d="M250.667 78.667C250.3 79.033 250 92.083 250 107.667V136H259.964H269.928L270.214 126.25L270.5 116.5L276.75 116.202L283 115.905V125.952V136H293.588H304.176L303.677 107.25C303.403 91.438 303.138 78.388 303.089 78.25C303.04 78.112 298.516 78 293.036 78H283.072L282.786 87.75L282.5 97.5H276.5H270.5L270.214 87.75L269.928 78H260.63C255.517 78 251.033 78.3 250.667 78.667Z" fill="#221783"/>
<path fill-rule="evenodd" clip-rule="evenodd" d="M68.153 4.566C67.949 3.502 68.481 2.122 69.334 1.497C70.188 0.873 73.165 0.259 75.949 0.132C80.553 -0.078 81.1 0.132 81.981 2.45C82.58 4.025 83.725 5 84.975 5C86.089 5 87 5.467 87 6.038C87 6.7 83.661 6.971 77.761 6.788C69.546 6.532 68.482 6.286 68.153 4.566ZM225.514 6.437C222.458 5.863 222 5.401 222 2.889C222 1.82571 222 1.15376 222.324 0.729117C222.88 0 224.392 0 228.5 0C234.333 0 235 0.205 235 2C235 3.454 235.667 4 237.441 4C238.784 4 240.125 4.393 240.422 4.873C241.159 6.066 229.858 7.252 225.514 6.437ZM104.5 9C103.667 9 103 8.111 103 7C103 5.267 103.667 5 108 5C112.333 5 113 5.267 113 7C113 8.111 112.333 9 111.5 9C110.675 9 110 9.675 110 10.5C110 11.325 110.675 12 111.5 12C112.333 12 113 12.889 113 14C113 15.733 112.333 16 108 16C103.667 16 103 15.733 103 14C103 12.889 103.667 12 104.5 12C105.325 12 106 11.325 106 10.5C106 9.675 105.325 9 104.5 9ZM197.5 16C196.348 16 196 14.722 196 10.5V5H199.5C203.368 5 204.456 7.386 201 8.29C199.468 8.69 199 9.654 199 12.406C199 14.934 198.555 16 197.5 16ZM261.051 14.992C260.748 14.987 259.311 12.737 257.859 9.992L255.217 5H260.609C263.574 5 266 5.213 266 5.473C266 6.482 261.571 15 261.051 14.992ZM37.966 16L40.519 10.963C41.923 8.193 43.512 6.198 44.05 6.531C44.989 7.111 49 14.346 49 15.46C49 15.757 46.517 16 43.483 16H37.966ZM81.231 12C80.478 18.999 69 18.34 69 11.297C69 8.997 69.242 8.916 75.25 9.202C81.254 9.488 81.489 9.598 81.231 12ZM228.316 17C225.679 17 222 13.395 222 10.811C222 9.249 222.892 9 228.5 9C234.726 9 235 9.103 235 11.443C235 14.23 231.669 17 228.316 17ZM42.174 24.338C39.9 22.904 39.7 21.443 41.527 19.616C43.458 17.685 44.211 17.611 45.8 19.2C48.762 22.162 45.67 26.543 42.174 24.338ZM55.509 25C48.291 24.484 46.876 23.37 48.399 19.404C48.855 18.215 50.788 17.981 58.233 18.212L67.5 18.5V28C67.5 37.027 67.39 37.516 65.299 37.813C63.257 38.104 63.077 37.673 62.799 31.813L62.5 25.5L55.509 25ZM83 38V28V18H92.5H102V21.5V25H95H88V31.5C88 37.767 87.91 38 85.5 38H83ZM107.46 25C104.356 25 103.037 21.178 105.516 19.365C107.329 18.039 111 19.102 111 20.953C111 23.348 109.555 25 107.46 25ZM199.811 23.618C196.815 26.614 192.345 22.699 195.046 19.444C196.601 17.571 198.916 17.913 200.376 20.231C201.215 21.563 201.084 22.344 199.811 23.618ZM202 22.167C202 20.608 202.3 19.033 202.667 18.667C203.033 18.3 207.308 18 212.167 18H221V28.07C221 37.94 220.956 38.133 218.75 37.82C216.729 37.533 216.47 36.864 216.202 31.25L215.905 25H208.952H202V22.167ZM236.207 29.084C236.046 24.455 236.144 20.067 236.425 19.334C236.803 18.35 239.458 18 246.532 18H256.127L255.813 21.25L255.5 24.5L248.797 24.795L242.093 25.089L241.797 31.295C241.516 37.168 241.366 37.5 239 37.5C236.555 37.5 236.494 37.316 236.207 29.084ZM260.112 24.535C257.789 23.798 257.324 21.076 259.2 19.2C260.994 17.406 262.793 17.745 264.062 20.117C265.552 22.899 263.209 25.519 260.112 24.535ZM43.5 30C41.938 30 41.516 28.817 42.667 27.667C43.817 26.516 45 26.938 45 28.5C45 29.325 44.325 30 43.5 30ZM197.5 30C196.675 30 196 29.325 196 28.5C196 27.675 196.675 27 197.5 27C198.325 27 199 27.675 199 28.5C199 29.325 198.325 30 197.5 30ZM261.5 30C260.675 30 260 29.325 260 28.5C260 27.675 260.675 27 261.5 27C262.325 27 263 27.675 263 28.5C263 29.325 262.325 30 261.5 30ZM107.5 30C106.675 30 106 29.55 106 29C106 28.45 106.675 28 107.5 28C108.325 28 109 28.45 109 29C109 29.55 108.325 30 107.5 30ZM70 38.105V33.5V28.895L75.25 29.198L80.5 29.5V33.5V37.5L75.25 37.802L70 38.105ZM223 33.599C223 31.803 223.32 30.013 223.712 29.622C224.103 29.23 226.69 29.043 229.462 29.205C234.185 29.482 234.521 29.679 234.828 32.372C235.238 35.958 233.839 37.41 229.716 37.673C224.336 38.018 223 37.207 223 33.599ZM58.107 62.358C57.282 61.706 63.249 42.445 64.606 41.378C66.001 40.281 85.307 39.945 86.307 41C87.455 42.212 92.862 61.532 92.217 62.119C90.63 63.565 80.544 65.88 79.959 64.933C79.627 64.397 78.546 60.521 77.556 56.322C75.553 47.829 75.094 47.981 72.502 57.991C71.577 61.561 70.631 64.788 70.399 65.163C70.043 65.739 59.278 63.283 58.107 62.358ZM214.017 52.199C215.561 47.084 217.081 42.232 217.394 41.416C217.859 40.205 220.005 39.986 229.158 40.217L240.353 40.5L243.575 51L246.797 61.5L243.806 62.791C242.161 63.5 239.187 64.175 237.198 64.291L233.581 64.5L231.802 58C229.036 47.898 228.921 47.866 226.505 56.5L224.266 64.5L220.726 64.291C218.778 64.175 215.84 63.5 214.197 62.791L211.209 61.5L214.017 52.199ZM50.5 70.877L55.5 68.522C61.911 65.502 62.443 65.5 64.408 68.5L66.046 71L58.273 70.939L50.5 70.877ZM85 70.329C85 69.96 85.751 68.828 86.668 67.815C88.489 65.803 90.156 66.029 96 69.083L99.5 70.912L92.25 70.956C88.263 70.98 85 70.698 85 70.329ZM204.5 70.91L209 68.5C214.433 65.591 215.874 65.465 217.608 67.75C219.838 70.687 219.263 71.002 211.75 70.955L204.5 70.91ZM239 70.434C239 70.123 239.466 68.998 240.035 67.934C241.382 65.417 243.491 65.55 249 68.5L253.5 70.91L246.25 70.955C242.262 70.98 239 70.745 239 70.434Z" fill="#221783"/>
<path d="M147.309 30.637C147.057 31.294 146.997 33.107 147.175 34.666C147.478 37.31 147.801 37.5 152 37.5C156.471 37.5 156.502 37.476 156.808 33.784C157.073 30.6 156.786 29.991 154.808 29.534C151.409 28.748 147.832 29.274 147.309 30.637Z" fill="#FD1718"/>
<path d="M125.384 19.442C125.08 20.234 124.986 21.697 125.176 22.692C125.461 24.185 126.688 24.551 132.214 24.795L138.907 25.089L139.203 31.295C139.47 36.862 139.731 37.533 141.75 37.82C143.956 38.133 144 37.94 144 28.07V18H134.969C128.026 18 125.809 18.333 125.384 19.442Z" fill="#FD1718"/>
<path d="M160 28.032C160 37.941 160.044 38.133 162.25 37.82C164.269 37.533 164.53 36.862 164.797 31.295L165.093 25.089L171.797 24.795L178.5 24.5V21.5V18.5L169.25 18.212L160 17.925V28.032Z" fill="#FD1718"/>
<path d="M145.438 10.1C144.342 11.873 148.442 16.47 151.437 16.825C154.798 17.224 158 14.55 158 11.345C158 9.148 157.625 9 152.059 9C148.791 9 145.812 9.495 145.438 10.1Z" fill="#FD1718"/>
<path d="M145 3.387C145 6.268 147.401 6.775 157 5.923C160.575 5.605 162.445 5.268 161.156 5.173C159.744 5.069 158.605 4.205 158.29 3C157.836 1.263 156.926 1 151.383 1C145.322 1 145 1.12 145 3.387Z" fill="#FD1718"/>
<path d="M117.357 20.513C116.694 22.24 118.627 25 120.5 25C122.415 25 124.111 22.452 123.41 20.627C122.623 18.576 118.132 18.492 117.357 20.513Z" fill="#FD1718"/>
<path d="M117 7C115.9 8.1 115 9.675 115 10.5C115 12.405 118.548 16 120.429 16C124.8 16 126.817 9.007 123.24 6.25C120.958 4.492 119.31 4.69 117 7Z" fill="#FD1718"/>
<path d="M138.109 49.23C134.515 61.658 134.589 62.145 140.323 63.781C142.976 64.538 145.685 64.951 146.343 64.699C147.001 64.446 148.394 60.81 149.437 56.62C150.481 52.429 151.661 49 152.059 49C152.457 49 153.086 50.237 153.455 51.75C155.557 60.354 157.287 65 158.389 65C159.076 65 161.923 64.321 164.717 63.491L169.798 61.983L166.608 51.741L163.419 41.5L151.96 41.23L140.5 40.96L138.109 49.23Z" fill="#FD1718"/>
<path d="M133 68.334L128.5 70.5L134.866 70.801C138.367 70.966 141.477 70.856 141.776 70.557C142.37 69.964 139.064 65.947 138.095 66.084C137.768 66.131 135.475 67.143 133 68.334Z" fill="#FD1718"/>
<path d="M179.772 8.102C179.521 9.808 179.523 12.283 179.775 13.602C180.175 15.698 180.785 16 184.617 16H189V10.5V5H184.613C180.472 5 180.202 5.173 179.772 8.102Z" fill="#FD1718"/>
<path d="M182.435 19.424C180.443 20.881 181.045 23.696 183.555 24.659C185.625 25.454 188.254 22.825 187.459 20.755C186.587 18.481 184.485 17.925 182.435 19.424Z" fill="#FD1718"/>
<path d="M183 29C183 29.55 183.423 30 183.941 30C184.459 30 185.16 29.55 185.5 29C185.84 28.45 185.416 28 184.559 28C183.702 28 183 28.45 183 29Z" fill="#FD1718"/>
<path d="M164.278 67.25C161.511 70.828 161.742 71.001 169.191 70.942L176.5 70.885L171.122 68.442C170.597 68.2034 170.12 67.9855 169.686 67.7874C166.591 66.3735 165.7 65.9664 165.156 66.2428C164.937 66.3546 164.774 66.578 164.545 66.8919C164.465 67.0007 164.378 67.1204 164.278 67.25Z" fill="#FD1718"/>
<path d="M119 29C119 29.55 119.675 30 120.5 30C121.325 30 122 29.55 122 29C122 28.45 121.325 28 120.5 28C119.675 28 119 28.45 119 29Z" fill="#FD1718"/>
</svg>
