<svg width="1216" height="839" viewBox="0 0 1216 839" fill="none" xmlns="http://www.w3.org/2000/svg">
<path d="M484.001 0.933307C444.801 3.06664 410.534 11.4666 379.334 26.6666C319.867 55.4666 274.001 108 231.734 195.867C204.801 251.6 186.667 299.067 177.867 336.8C173.734 354.533 172.001 389.867 174.534 404.8C183.867 458.667 220.134 491.467 283.334 503.067C299.067 506 301.201 506 427.334 506H555.201L577.201 445.6C589.201 412.4 598.801 384.933 598.401 384.667C598.001 384.267 550.134 383.733 491.867 383.467C389.467 382.933 385.601 382.8 375.467 380.133C362.667 376.8 355.601 372.8 348.401 364.933C334.267 349.6 334.401 321.867 348.934 284.667C363.467 247.733 387.867 201.333 404.534 178.933C421.601 156.267 436.667 143.867 457.734 135.333C481.067 125.733 471.201 126.267 647.201 125.733C734.401 125.467 806.134 124.933 806.801 124.667C807.334 124.267 812.001 118.133 817.067 110.933C822.134 103.867 840.534 77.8666 858.134 53.3333C875.734 28.8 891.467 6.66664 893.067 4.26664L896.134 -2.639e-05L693.734 0.26664C582.401 0.399974 488.001 0.66664 484.001 0.933307Z" fill="#0D3559"/>
<path d="M492.666 191.467C473.333 215.067 454.266 245.333 439.733 275.867C434.666 286.4 430.8 295.6 430.933 296.267C431.333 297.2 475.866 297.6 552.266 297.467C618.666 297.333 675.333 297.6 678.4 298.133L683.733 298.933L681.333 305.867C680 309.6 674.133 325.867 668.266 342C626.133 458 589.333 560.533 589.333 561.733C589.333 561.867 620.4 561.733 658.266 561.333L727.2 560.667L744.666 514C791.2 389.733 806.4 348.533 816.933 318C820.266 308.4 823.866 299.867 825.066 298.933C826.8 297.6 844.933 297.333 908.4 297.333C953.2 297.333 989.866 297.2 990 297.067C1001.07 281.467 1052.13 210.4 1065.73 191.867C1069.87 186 1073.33 181.067 1073.33 180.667C1073.33 180.267 944.8 180 787.733 180H502L492.666 191.467Z" fill="#0266BC"/>
<path d="M443.733 615.333C443.466 615.733 430 616.8 413.866 617.866C397.866 619.066 381.6 620.533 378 621.2C352.266 626.133 338.4 640.133 332.4 667.066C329.466 680.133 329.066 737.066 331.866 748C337.733 771.333 349.866 783.466 372.666 789.333C385.2 792.533 405.733 792.8 418.933 790.133C451.466 783.2 467.6 757.6 462.933 720.4C460.933 704.933 456.666 695.6 447.733 687.2C436.266 676.533 422.666 672.666 398.4 673.6C382.4 674.133 373.733 676.666 366.8 683.066L363.6 686L364.4 678.533C365.2 670.266 368.666 662.266 373.6 657.733C378.266 653.333 390.266 650.933 412 650C430.533 649.2 447.333 647.466 452.4 645.866C454.4 645.2 454.666 643.2 454.666 629.866V614.666H449.6C446.8 614.666 444.133 614.933 443.733 615.333ZM414.266 706.8C422.266 710.8 425.466 716.266 426.266 727.2C427.6 743.2 422.8 753.733 412.133 758.4C405.733 761.2 387.6 761.066 381.2 758.266C370.8 753.733 366.666 744.933 366.666 727.733C366.666 718 366.933 717.2 370.933 712.533C377.333 705.2 385.466 702.533 398.933 703.2C404.933 703.466 409.866 704.666 414.266 706.8Z" fill="#0D3559"/>
<path d="M947.733 619.6C944.533 620.133 944 620.8 944 624.4C944.133 629.733 947.067 638 949.867 641.2C957.867 650 979.867 655.066 997.467 652.133C1007.47 650.533 1017.73 646 1021.73 641.6C1024.93 638.133 1027.87 629.866 1028 624.533C1028 620.666 1027.6 620.266 1023.07 619.466C1020.27 619.066 1014.93 618.666 1011.07 618.666C1004.67 618.666 1004.13 618.933 1001.6 623.2C998.267 628.8 990.933 631.333 981.733 629.866C975.333 628.933 969.333 624.533 969.333 620.666C969.333 619.066 967.6 618.666 960.4 618.8C955.333 618.933 949.733 619.333 947.733 619.6Z" fill="#0266BC"/>
<path d="M77.2 621.333C25.8667 626.133 0 654.133 0 705.066C0 742.933 13.0667 768.533 39.2 781.333C56.2667 789.733 65.3333 791.333 98 791.066C119.867 790.933 128.4 790.4 137.2 788.533L148.267 786L148.133 768.666C148 759.2 147.6 751.2 147.333 750.933C147.067 750.666 143.733 751.066 139.733 751.866C128.133 754.266 101.333 756.133 92 755.333C64.9333 752.8 53.4667 746.8 46.4 731.333C43.7333 725.466 43.3333 722.666 43.3333 706.666C43.3333 690.666 43.7333 687.866 46.4 682C50.1333 674 56.1333 667.333 63.2 663.733C77.0667 656.666 103.6 655.466 138.667 660.4C140.267 660.666 141.2 657.333 142.933 644.666C144.267 635.866 145.067 628 144.8 627.2C143.467 623.466 97.2 619.466 77.2 621.333Z" fill="#0D3559"/>
<path d="M670.001 665.733C662.401 668.267 656.667 671.467 651.467 676L646.934 680L646.001 673.333L645.067 666.667H629.201H613.334V752.667V838.667H631.334H649.334V809.333C649.334 793.2 649.601 780 649.867 780C650.267 780 653.334 781.733 656.934 784C679.067 797.6 717.867 793.467 732.801 775.6C737.467 770 743.334 758 745.467 749.333C748.134 738.8 747.734 713.333 744.801 703.333C739.601 685.733 729.201 673.333 714.934 667.867C705.467 664.133 678.534 662.933 670.001 665.733ZM699.067 700C706.934 705.333 709.867 712.8 709.734 728C709.734 742.4 707.734 748.4 701.334 753.733C693.334 760.533 676.534 762.133 663.067 757.333C649.601 752.667 649.334 752.133 649.334 728.667V708.533L653.067 704.933C660.267 698.133 667.334 695.867 681.467 696.267C692.534 696.667 694.801 697.067 699.067 700Z" fill="#0266BC"/>
<path d="M810.667 666C782 674 768.934 693.2 768.934 727.333C768.934 763.867 784 783.867 816.667 790C829.867 792.533 854.4 792.533 871.334 790C891.467 786.933 889.734 788.667 888.534 772.933C888.134 765.467 887.467 759.2 887.334 758.933C887.2 758.8 880.534 759.6 872.534 760.8C851.734 763.867 828.134 763.067 819.734 758.933C812.667 755.467 808.4 750.4 807.2 744.133L806.4 740H850.934H895.6L896.534 734.933C898.667 722 895.734 702 890.134 691.067C885.334 681.467 874 671.6 863.734 668C852.534 664 821.867 662.933 810.667 666ZM851.067 695.6C856.667 698.933 860.134 704 860.934 710.4L861.734 716H834.134H806.667V712.533C806.667 707.6 810.534 700.133 814.267 697.6C823.2 691.867 842.667 690.8 851.067 695.6Z" fill="#0266BC"/>
<path d="M175.333 668.266C174.933 669.2 174.8 696.666 175.066 729.333L175.333 788.666L192.666 788.933L210 789.2L220 776.266C225.466 769.2 237.733 753.466 247.333 741.6L264.666 719.733L265.333 754.266L266 788.666L283.733 789.066L301.333 789.466V728V666.666H284.266H267.066L239.866 701.866C224.933 721.333 212.266 737.2 211.733 737.2C211.066 737.333 210.666 721.466 210.666 702V666.666H193.333C180.533 666.666 175.733 667.066 175.333 668.266Z" fill="#0D3559"/>
<path d="M476 682V697.333H496H516L516.267 742.933L516.667 788.666L535.067 789.066L553.333 789.466V743.333V697.333H573.333H593.333V682V666.666H534.667H476V682Z" fill="#0266BC"/>
<path d="M922.666 728V789.333H939.866H957.199L961.733 783.6C964.133 780.533 976.666 764.8 989.466 748.666L1012.67 719.466L1013.07 754.4L1013.33 789.333H1031.33H1049.33V728V666.666H1032.27H1015.2L999.866 686.266C991.466 696.933 980.933 710.533 976.266 716.4C971.733 722.133 966.266 729.333 964.266 732.133C962.266 734.933 960.266 737.333 959.733 737.333C959.066 737.333 958.666 721.466 958.666 702V666.666H940.666H922.666V728Z" fill="#0266BC"/>
<path d="M1099.47 668.267C1099.2 669.2 1098.27 680.533 1097.33 693.333C1095.6 720 1093.2 735.2 1089.2 746.133C1085.33 756.4 1081.6 760 1074.67 760H1069.33V788V816H1085.2H1101.07L1102 802.667L1102.93 789.333H1143.47H1184V798.533C1184 803.6 1184.4 809.6 1184.8 811.867L1185.73 816H1200.8H1216V788V760L1211.33 759.867C1208.8 759.733 1206.13 759.467 1205.33 759.333C1204.67 759.2 1203.47 758.933 1202.67 758.8C1201.87 758.667 1201.33 742.267 1201.33 712.667V666.667H1150.67C1111.2 666.667 1099.87 667.067 1099.47 668.267ZM1165.33 728.533V759.867L1143.07 759.733C1130.67 759.733 1120.27 759.467 1119.87 759.2C1119.33 758.933 1120.4 755.067 1122.13 750.8C1125.33 743.067 1128.13 726.8 1130 706.933L1130.93 697.333H1148.13H1165.33V728.533Z" fill="#0266BC"/>
</svg>
