<svg width="661" height="483" viewBox="0 0 661 483" fill="none" xmlns="http://www.w3.org/2000/svg">
<path d="M46 40.1333C32.8 62.2667 21.8667 80.9333 21.6 81.8667C21.3333 82.9333 40 83.2 92.9333 82.9333C132.4 82.8 167.2 83.0667 170.267 83.6L176 84.6667L151.2 135.333C137.6 163.2 122.133 194.667 117.067 205.333C111.867 216 83.4667 273.467 53.8667 333.2C24.2667 392.933 0 442 0 442.267C0 442.533 24.1333 442.533 53.7333 442.4L107.333 442L113.6 429.333C152.667 350.267 192.933 268.533 201.333 251.333C236.8 178.667 278.667 93.2 281.067 88.2667L284.133 82.6667L444.267 82.9333L451.6 69.0667C455.6 61.6 465.467 43.2 473.467 28.2667C481.467 13.4667 488 0.933333 488 0.666667C488 0.266667 394 0 279.067 0H70L46 40.1333Z" fill="#384951"/>
<path d="M465.233 176.033C457.499 181.233 452.299 190.567 449.499 204.433C446.166 220.567 434.299 291.233 430.033 320.433C417.633 405.767 415.099 425.367 416.166 428.3C417.766 432.567 423.633 434.033 440.566 434.567L457.099 435.1L457.633 426.433C459.499 395.767 479.633 370.433 510.033 360.3C520.033 356.967 538.833 356.967 548.699 360.3C561.899 364.833 569.233 369.367 578.833 378.967C594.566 394.7 600.299 410.3 599.099 434.433L598.433 448.033L621.899 447.5C643.899 447.1 645.633 446.967 650.566 443.9C659.499 438.3 660.699 434.967 660.699 414.833V397.233L655.499 395.767C646.566 393.367 642.699 387.633 640.033 372.7L639.099 367.767H659.366V362.7C659.366 350.3 656.299 321.5 654.566 317.233C651.233 309.367 646.566 304.433 638.299 300.033C633.899 297.633 630.033 294.7 629.633 293.5C629.233 292.167 624.033 280.433 618.166 267.233C612.166 254.167 607.366 242.967 607.366 242.3C607.366 241.633 608.966 241.1 610.833 241.1C614.033 241.1 614.299 240.7 613.633 237.367C610.166 219.9 597.766 204.567 580.566 196.567C559.766 186.7 533.899 181.633 498.033 180.167L476.966 179.367L476.166 175.5C475.233 170.7 473.099 170.833 465.233 176.033ZM598.966 268.033C605.633 282.967 612.299 297.9 613.766 301.233C615.899 306.433 617.766 308.167 624.566 311.9C629.899 314.833 633.099 317.633 634.166 320.033C634.966 322.167 635.366 324.167 635.099 324.567C633.899 325.633 550.699 303.767 540.299 299.5C533.233 296.7 532.566 294.167 531.766 266.567L530.966 241.1H586.833L598.966 268.033Z" fill="#384951"/>
<path d="M513.766 379.633C509.633 380.967 504.166 383.367 501.633 384.967C494.433 389.367 484.833 400.433 480.966 408.833C477.899 415.5 477.366 418.167 477.366 430.433C477.366 443.367 477.633 445.1 481.499 453.233C487.366 465.633 493.899 472.167 505.766 478.167C515.233 482.833 516.566 483.1 527.899 482.967C543.766 482.833 552.566 479.5 563.366 469.5C581.366 452.967 586.299 429.1 576.299 407.233C565.633 383.9 538.166 371.9 513.766 379.633ZM540.699 406.433C554.033 413.233 559.233 431.9 551.366 444.7C549.899 447.1 546.299 450.7 543.233 452.7C538.433 455.9 536.166 456.433 528.566 456.433C520.699 456.433 518.833 455.9 513.766 452.433C506.833 447.5 502.033 438.833 502.033 430.833C502.033 420.167 509.366 409.233 519.366 405.233C524.966 402.967 535.099 403.5 540.699 406.433Z" fill="#384951"/>
<path d="M299.733 204C304.799 193.333 320.266 161.867 333.866 134H440.702C424.954 166.183 403.509 210.028 383.999 250C375.599 267.2 335.333 348.933 296.266 428L289.999 440.667L236.399 441.067C206.799 441.2 182.666 441.2 182.666 440.933C182.666 440.667 206.933 391.6 236.533 331.867C266.133 272.133 294.533 214.667 299.733 204Z" fill="#DE8825"/>
</svg>
